<?xml version="1.0" encoding="UTF-8" standalone="no"?>
<!DOCTYPE svg PUBLIC "-//W3C//DTD SVG 1.1//EN" "http://www.w3.org/Graphics/SVG/1.1/DTD/svg11.dtd">
<svg width="100%" height="100%" viewBox="0 0 360 225" version="1.1" xmlns="http://www.w3.org/2000/svg" xmlns:xlink="http://www.w3.org/1999/xlink" xml:space="preserve" xmlns:serif="http://www.serif.com/" style="fill-rule:evenodd;clip-rule:evenodd;stroke-linejoin:round;stroke-miterlimit:1.41421;">
    <g id="Artboard1" transform="matrix(0.440284,0,0,0.299175,375.417,92.9258)">
        <rect x="-852.67" y="-310.606" width="817.655" height="752.067" style="fill:none;"/>
        <g id="Text" transform="matrix(2.27126,0,0,3.34252,570.379,-36.2432)">
            <g transform="matrix(1.38777,0,0,1.38777,-694.679,-272.253)">
                <text x="217.435px" y="229.921px" style="font-family:'DINAlternate-Bold', 'DIN Alternate', sans-serif;font-weight:700;font-size:60px;fill:rgb(38,38,38);">802</text>
            </g>
            <g transform="matrix(1.36582,0,0,1.36582,-701.378,-265.295)">
                <text x="226.89px" y="266.23px" style="font-family:'DINAlternate-Bold', 'DIN Alternate', sans-serif;font-weight:700;font-size:35px;fill:rgb(26,26,26);">social</text>
            </g>
        </g>
        <g id="Butterfly" transform="matrix(2.27126,0,0,3.34252,570.379,14.6554)">
            <g transform="matrix(4.16667,0,0,4.16667,-2196.57,-895.995)">
                <path d="M396.731,217.274C393.256,213.517 389.606,209.919 385.8,206.497C384.374,205.216 382.907,203.946 381.195,203.084C380.802,202.886 380.313,202.715 379.942,202.953C379.695,203.111 379.58,203.409 379.497,203.691C378.059,208.539 382.208,214.079 384.519,218.063C387.299,222.855 390.466,227.454 394.288,231.481C394.848,232.071 395.45,232.667 396.219,232.934C396.446,233.013 396.711,233.057 396.918,232.935C397.21,232.764 397.249,232.366 397.255,232.027C397.313,228.402 397.373,224.777 397.432,221.152C397.45,219.989 397.458,218.775 396.939,217.735" style="fill:rgb(0,218,126);fill-rule:nonzero;"/>
            </g>
            <g transform="matrix(4.16667,0,0,4.16667,-2196.57,-895.995)">
                <path d="M398.665,196.84C399.115,195.526 399.754,194.052 401.083,193.651C402.699,193.164 404.231,194.55 405.32,195.84C408.384,199.474 411.14,203.367 413.549,207.463C414.505,209.09 415.437,210.888 415.33,212.831C415.224,214.795 413.617,216.492 412.624,218.09C409.009,223.905 406.14,231.455 399.938,235.05L395.779,233.3C392.309,221.408 394.648,208.56 398.665,196.84Z" style="fill:rgb(11,127,255);fill-rule:nonzero;"/>
            </g>
            <g transform="matrix(4.16667,0,0,4.16667,-2196.57,-895.995)">
                <path d="M410.254,223.235C412.414,221.54 415.109,219.989 417.77,220.669C419.149,221.022 420.316,221.942 421.312,222.962C423.71,225.42 425.352,228.607 425.961,231.988C426.296,233.842 426.233,235.991 424.879,237.301C423.881,238.268 422.41,238.544 421.023,238.644C417.678,238.885 414.329,238.364 411.015,237.843C407.53,237.296 404.046,236.75 400.562,236.203L400.246,234.562C402.858,230.222 406.269,226.362 410.254,223.235Z" style="fill:rgb(162,0,234);fill-rule:nonzero;"/>
            </g>
            <g transform="matrix(4.16667,0,0,4.16667,-2196.57,-895.995)">
                <path d="M404.771,236.921C410.353,240.079 414.605,243.122 414.269,243.716C413.932,244.311 409.134,242.233 403.552,239.075C397.97,235.917 393.718,232.875 394.055,232.28C394.391,231.685 399.188,233.763 404.771,236.921Z" style="fill:rgb(26,26,26);fill-rule:nonzero;"/>
            </g>
            <g transform="matrix(4.16667,0,0,4.16667,-2196.57,-895.995)">
                <path d="M394.308,230.673C395.039,231.087 395.297,232.016 394.883,232.749C394.469,233.48 393.539,233.738 392.808,233.324C392.075,232.91 391.817,231.98 392.231,231.249C392.646,230.517 393.575,230.259 394.308,230.673Z" style="fill:rgb(26,26,26);fill-rule:nonzero;"/>
            </g>
        </g>
        <g transform="matrix(9.4636,0,0,13.9272,-3317.05,-5052.21)">
            <path d="M276.499,380.245C275.428,378.048 273.97,376.058 272.234,374.368C271.361,373.525 270.402,372.786 269.436,372.063C268.474,371.329 267.445,370.688 266.398,370.047L266.42,370.001C267.592,370.387 268.688,370.98 269.724,371.656C270.755,372.345 271.669,373.192 272.518,374.088C274.224,375.873 275.603,377.962 276.544,380.225L276.499,380.245Z" style="fill:rgb(26,26,26);fill-rule:nonzero;"/>
        </g>
        <g transform="matrix(9.4636,0,0,13.9272,-3317.05,-5052.21)">
            <path d="M277.402,380.104C277.409,377.829 276.823,375.61 275.923,373.554C275.468,372.523 274.913,371.542 274.403,370.535C273.9,369.523 273.354,368.53 272.895,367.482L272.938,367.457C273.641,368.358 274.252,369.318 274.84,370.297C275.414,371.283 275.879,372.334 276.291,373.401C277.127,375.529 277.605,377.828 277.452,380.104L277.402,380.104Z" style="fill:rgb(26,26,26);fill-rule:nonzero;"/>
        </g>
    </g>
</svg>
