<?xml version="1.0" encoding="UTF-8" standalone="no"?><!DOCTYPE svg PUBLIC "-//W3C//DTD SVG 1.1//EN" "http://www.w3.org/Graphics/SVG/1.1/DTD/svg11.dtd"><svg width="100%" height="100%" viewBox="0 0 280 280" version="1.1" xmlns="http://www.w3.org/2000/svg" xmlns:xlink="http://www.w3.org/1999/xlink" xml:space="preserve" xmlns:serif="http://www.serif.com/" style="fill-rule:evenodd;clip-rule:evenodd;stroke-linejoin:round;stroke-miterlimit:1.41421;"><g id="Layer-1" serif:id="Layer 1"><path d="M127.985,64.652l0,3.785c0,3.371 1.308,5.642 4.404,5.642c2.891,0 4.404,-1.72 4.404,-5.711l0,-3.785c0,-3.234 -0.825,-5.918 -4.404,-5.918c-3.303,0 -4.404,2.477 -4.404,5.987m9.29,25.461l0,-5.78c0,-4.473 -1.582,-6.4 -4.955,-6.4c-3.371,0 -4.954,1.927 -4.954,6.606l0,5.436c0,3.923 1.376,6.813 4.954,6.813c3.854,0 4.955,-2.753 4.955,-6.675m-14.244,-0.138l0,-5.229c0,-5.85 2.408,-7.638 4.472,-8.809c-2.408,-1.445 -3.785,-3.785 -3.785,-8.257l0,-2.89c0,-6.125 2.822,-9.979 8.877,-9.979c5.3,0 8.465,3.166 8.465,9.979l0,2.614c0,5.643 -1.858,7.363 -3.992,8.465c2.684,1.239 4.474,3.509 4.474,8.808l0,5.023c0,7.226 -2.753,10.942 -9.29,10.942c-5.919,0 -9.221,-3.441 -9.221,-10.667" style="fill-rule:nonzero;"/><path d="M150.763,65.959l0,23.672c0,4.68 1.513,6.882 4.886,6.882c2.958,0 4.679,-1.651 4.679,-7.088l0,-23.535c0,-5.161 -1.928,-6.95 -4.748,-6.95c-2.822,0 -4.817,1.514 -4.817,7.019m13.969,0.069l0,23.259c0,7.845 -3.097,11.355 -9.29,11.355c-5.712,0 -9.014,-3.441 -9.014,-11.217l0,-23.121c0,-8.602 4.058,-11.493 9.289,-11.493c5.092,0 9.015,2.822 9.015,11.217" style="fill-rule:nonzero;"/><path d="M168.722,100.091l0,-0.619c0,-6.744 3.166,-12.181 8.671,-20.301c3.647,-5.367 4.61,-7.5 4.61,-12.524c0,-5.574 -0.963,-8.051 -4.266,-8.051c-3.234,0 -4.405,2.546 -4.405,6.537l0,1.996l-4.128,0l0,-2.202c0,-4.817 1.446,-10.116 8.739,-10.116c6.882,0 8.464,5.093 8.464,11.63c0,6.95 -1.788,9.634 -5.298,14.657c-4.404,6.4 -7.157,11.217 -7.501,15.139l13.831,0l-0.619,3.854l-18.098,0Z" style="fill-rule:nonzero;"/><path d="M65.411,165.921c-1.922,-1.66 -4.229,-3.154 -6.153,-4.813c-2.692,1.991 -4.999,4.481 -7.69,6.805c-7.884,7.634 -15.382,15.933 -20.764,24.73c-2.308,3.983 -5.193,7.966 -6.537,12.281c-1.347,2.822 -2.308,6.474 -1.347,9.626c2.308,11.121 21.727,8.3 30.955,5.976c6.921,-1.66 12.881,-3.984 18.842,-7.967c5.576,-3.651 11.15,-8.796 12.497,-15.103c1.73,-12.78 -10.189,-23.568 -19.803,-31.535m45.182,-40.165c-17.495,9.128 -33.646,20.249 -48.451,32.531c18.842,14.439 39.223,33.858 19.803,51.783c-10.189,9.294 -24.993,14.772 -39.605,15.601c-6.538,0.332 -13.075,0 -18.459,-3.153c-5.19,-3.154 -6.537,-8.797 -5.576,-13.942c1.732,-8.464 7.306,-16.763 12.882,-23.9c6.537,-8.797 14.227,-16.763 22.688,-23.9c0.769,-0.83 1.345,-1.162 2.308,-1.992c-9.806,-7.136 -19.997,-13.609 -29.225,-21.078c-5.96,-4.481 -11.536,-9.627 -14.613,-15.934c-3.268,-6.804 -3.268,-14.439 0,-21.244c7.307,-14.274 24.802,-24.232 41.53,-29.377c8.267,-2.49 16.918,-3.651 26.148,-3.153c4.614,0 9.806,0.663 14.419,2.655c2.308,0.83 3.654,1.992 4.999,3.983c0.961,1.328 0.577,2.49 -1.345,2.49c-0.961,0.332 -2.307,-0.83 -1.924,-1.162c-2.883,-3.319 -9.036,-4.149 -14.227,-4.813c-4.615,-0.498 -9.228,-0.498 -13.843,0.332c-10.189,1.162 -19.803,4.813 -28.647,9.128c-14.227,7.635 -29.032,21.245 -24.033,36.681c2.308,6.804 7.884,12.447 13.458,17.094c5.962,4.814 11.921,9.295 18.458,13.61c3.269,2.324 7.306,5.145 11.536,8.299c14.804,-12.614 30.955,-23.901 48.834,-32.531c0.963,-0.829 1.924,-0.829 2.885,0c0.961,0.332 0.961,1.494 0,1.992" style="fill-rule:nonzero;"/><path d="M112.919,118.902c-1.306,2.256 -3.919,8.118 -0.783,10.825c1.306,0.677 3.919,0.677 5.747,0.677l1.306,0c1.045,-2.707 2.352,-6.089 1.828,-9.246c-0.259,-2.03 -0.783,-6.089 -2.611,-6.089c-2.351,0 -4.442,2.254 -5.487,3.833m4.181,15.11c0.521,0 -4.964,0.225 -7.053,-1.128c-1.307,-0.451 -2.351,-1.578 -2.875,-2.48c0,2.706 0,6.314 1.828,8.569c3.136,3.157 7.577,-2.706 8.1,-4.961m25.862,-10.825c-4.964,5.638 -12.279,9.246 -19.594,10.374c-2.089,4.284 -6.791,11.05 -13.583,9.697c-4.441,-1.128 -6.27,-4.285 -7.053,-7.442c-0.524,-3.834 -0.524,-8.119 0.783,-11.952c0.523,-1.128 1.829,-2.706 3.657,-3.383c1.307,-4.285 4.441,-8.119 9.405,-8.57c10.71,-1.804 10.189,11.953 8.098,17.816c5.749,-1.128 10.71,-3.833 14.368,-8.119c1.305,-1.127 5.226,0 3.918,1.579" style="fill-rule:nonzero;"/><path d="M170.652,123.187c-3.92,4.961 -9.405,8.795 -15.676,11.953c-4.44,2.254 -12.017,5.412 -16.979,2.254c-10.713,-7.216 10.712,-33.827 21.16,-25.483c2.09,1.579 -1.83,3.158 -3.657,2.255c-2.613,-1.804 -6.27,2.029 -7.577,3.608c-2.351,2.256 -3.657,4.511 -4.964,7.217c-1.306,2.029 -1.828,4.736 -1.828,7.442c0,0.677 0.522,1.579 0.522,1.579l0.786,0.677c3.656,0 8.621,-2.707 11.755,-4.285c4.441,-2.707 8.097,-5.413 10.71,-8.796c1.828,-1.578 6.792,-1.127 5.748,1.579" style="fill-rule:nonzero;"/><path d="M168.039,110.254c-0.785,-0.451 -1.83,-0.677 -1.83,-1.804c0,-2.029 3.658,-3.834 4.964,-2.029c0.521,0.451 1.306,0.676 1.306,1.578c0,1.127 -2.612,3.157 -4.44,2.255m3.917,12.121c0,2.552 -0.783,4.934 -1.306,7.487c-1.307,6.466 -3.134,12.932 -3.658,19.568c0,2.042 -5.747,2.042 -5.747,0l0,-2.041c0.524,-4.935 1.83,-10.21 3.136,-15.145c0.522,-2.382 0.522,-4.935 1.307,-7.827c0,-0.681 0.521,-1.531 0.521,-2.382l0,-0.341l0,-0.51l0,-0.341c1.307,-2.042 5.747,-0.51 5.747,1.532" style="fill-rule:nonzero;"/><path d="M227.076,122.736c-3.658,5.412 -6.27,11.953 -9.928,17.365c-3.134,4.285 -7.053,10.824 -13.845,10.824c-3.136,0.451 -4.964,-3.382 -6.27,-5.412c-1.307,-3.383 -1.307,-6.54 -1.307,-10.373l0,-6.541c-6.791,11.502 -16.719,24.131 -24.034,16.463c-2.351,-2.255 -1.568,-4.961 -0.262,-7.668c1.83,-3.833 3.658,-7.667 6.27,-10.825c2.352,-3.382 4.964,-6.99 8.622,-8.795c1.828,-0.902 5.747,-1.579 7.053,0.677c1.045,2.029 -2.089,2.706 -3.134,1.579l-0.785,0c-3.658,3.157 -6.53,6.765 -9.404,11.275c-1.828,2.707 -3.658,6.089 -4.441,9.246c-0.523,1.128 -0.523,3.384 0.783,3.384c1.83,0 4.44,-2.707 5.487,-3.834c6.53,-6.766 10.45,-16.012 15.673,-25.032c1.306,-1.579 5.749,-1.579 5.226,0.675c-0.783,5.413 -2.09,10.825 -2.09,16.238c0,4.736 0,11.276 3.134,15.11c4.703,-0.903 7.577,-6.991 10.19,-10.826c2.351,-4.961 4.962,-10.373 8.098,-14.658c1.306,-2.029 6.27,-1.128 4.964,1.128" style="fill-rule:nonzero;"/><path d="M269.655,123.187c-10.711,14.207 -19.332,29.317 -27.43,44.427c-2.613,4.284 -4.443,8.795 -7.577,13.079c-1.828,2.03 -4.964,5.864 -8.883,5.413c-4.962,0 -8.098,-4.962 -8.62,-8.118c-3.657,-17.14 3.396,-45.781 7.315,-64.498c3.134,-16.689 5.747,-32.925 8.36,-49.163c0,-2.707 4.962,-2.256 4.962,0c-1.304,16.238 -4.441,32.474 -7.575,48.035c-2.091,12.178 -11.755,52.32 -7.576,64.949c0.782,2.03 2.351,5.638 4.963,3.382c6.271,-6.99 9.405,-15.785 13.845,-23.228c7.054,-12.628 14.369,-25.032 23.773,-36.308c2.092,-2.255 6.271,-0.676 4.443,2.03" style="fill-rule:nonzero;"/></g></svg>