<?xml version="1.0" encoding="UTF-8" standalone="no"?>
<!DOCTYPE svg PUBLIC "-//W3C//DTD SVG 1.1//EN" "http://www.w3.org/Graphics/SVG/1.1/DTD/svg11.dtd">
<svg width="100%" height="100%" viewBox="0 0 264 248" version="1.1" xmlns="http://www.w3.org/2000/svg" xmlns:xlink="http://www.w3.org/1999/xlink" xml:space="preserve" xmlns:serif="http://www.serif.com/" style="fill-rule:evenodd;clip-rule:evenodd;stroke-linejoin:round;stroke-miterlimit:1.41421;">
    <g transform="matrix(1,0,0,1,-8,-16)">
        <g>
            <g transform="matrix(-0.974564,-0.22411,-0.22411,0.974564,72.1346,4.27331)">
                <path d="M16.295,19.713C16.295,17.452 14.46,15.616 12.199,15.616L-205.317,15.616C-207.578,15.616 -209.413,17.452 -209.413,19.713L-209.413,214.416C-209.413,216.677 -207.578,218.513 -205.317,218.513L12.199,218.513C14.46,218.513 16.295,216.677 16.295,214.416L16.295,19.713Z" style="fill:rgb(55,210,135);"/>
            </g>
            <g transform="matrix(-0.988939,-0.14832,-0.14832,0.988939,61.8741,9.9087)">
                <path d="M16.295,19.713C16.295,17.452 14.46,15.616 12.199,15.616L-205.317,15.616C-207.578,15.616 -209.413,17.452 -209.413,19.713L-209.413,214.416C-209.413,216.677 -207.578,218.513 -205.317,218.513L12.199,218.513C14.46,218.513 16.295,216.677 16.295,214.416L16.295,19.713Z" style="fill:rgb(17,144,255);"/>
            </g>
            <g transform="matrix(-0.997972,-0.0636561,-0.0636561,0.997972,51.0908,17.0264)">
                <path d="M16.295,19.713C16.295,17.452 14.46,15.616 12.199,15.616L-205.317,15.616C-207.578,15.616 -209.413,17.452 -209.413,19.713L-209.413,214.416C-209.413,216.677 -207.578,218.513 -205.317,218.513L12.199,218.513C14.46,218.513 16.295,216.677 16.295,214.416L16.295,19.713Z" style="fill:rgb(87,55,210);"/>
            </g>
            <g transform="matrix(0.997638,0.0686918,-0.0686918,0.997638,133.575,97.7737)">
                <path d="M0,-26.149L0,-22.364C0,-18.993 1.308,-16.722 4.404,-16.722C7.295,-16.722 8.808,-18.442 8.808,-22.433L8.808,-26.218C8.808,-29.452 7.983,-32.136 4.404,-32.136C1.101,-32.136 0,-29.659 0,-26.149M9.29,-0.688L9.29,-6.468C9.29,-10.941 7.708,-12.868 4.335,-12.868C0.964,-12.868 -0.619,-10.941 -0.619,-6.262L-0.619,-0.826C-0.619,3.097 0.757,5.987 4.335,5.987C8.189,5.987 9.29,3.234 9.29,-0.688M-4.954,-0.826L-4.954,-6.055C-4.954,-11.905 -2.546,-13.693 -0.482,-14.864C-2.89,-16.309 -4.267,-18.649 -4.267,-23.121L-4.267,-26.011C-4.267,-32.136 -1.445,-35.99 4.61,-35.99C9.91,-35.99 13.075,-32.824 13.075,-26.011L13.075,-23.397C13.075,-17.754 11.217,-16.034 9.083,-14.932C11.767,-13.693 13.557,-11.423 13.557,-6.124L13.557,-1.101C13.557,6.125 10.804,9.841 4.267,9.841C-1.652,9.841 -4.954,6.4 -4.954,-0.826" style="fill:white;fill-rule:nonzero;"/>
            </g>
            <g transform="matrix(0.997638,0.0686918,-0.0686918,0.997638,156.388,98.0345)">
                <path d="M0,-23.535L0,0.137C0,4.817 1.513,7.019 4.886,7.019C7.844,7.019 9.565,5.368 9.565,-0.069L9.565,-23.604C9.565,-28.765 7.637,-30.554 4.817,-30.554C1.995,-30.554 0,-29.04 0,-23.535M13.969,-23.466L13.969,-0.207C13.969,7.638 10.872,11.148 4.679,11.148C-1.033,11.148 -4.335,7.707 -4.335,-0.069L-4.335,-23.19C-4.335,-31.792 -0.277,-34.683 4.954,-34.683C10.046,-34.683 13.969,-31.861 13.969,-23.466" style="fill:white;fill-rule:nonzero;"/>
            </g>
            <g transform="matrix(0.997638,0.0686918,-0.0686918,0.997638,176.687,64.6671)">
                <path d="M0,45.28L0,44.661C0,37.917 3.166,32.48 8.671,24.36C12.318,18.993 13.281,16.86 13.281,11.836C13.281,6.262 12.318,3.785 9.015,3.785C5.781,3.785 4.61,6.331 4.61,10.322L4.61,12.318L0.482,12.318L0.482,10.116C0.482,5.299 1.928,0 9.221,0C16.103,0 17.685,5.093 17.685,11.63C17.685,18.58 15.897,21.264 12.387,26.287C7.983,32.687 5.23,37.504 4.886,41.426L18.717,41.426L18.098,45.28L0,45.28Z" style="fill:white;fill-rule:nonzero;"/>
            </g>
            <g transform="matrix(0.753466,0.0518794,-0.0518794,0.753466,83.2458,138.499)">
                <path d="M0,38.339C-1.922,36.679 -4.229,35.185 -6.153,33.526C-8.845,35.517 -11.152,38.007 -13.843,40.331C-21.727,47.965 -29.225,56.264 -34.607,65.061C-36.915,69.044 -39.8,73.027 -41.144,77.342C-42.491,80.164 -43.452,83.816 -42.491,86.968C-40.183,98.089 -20.764,95.268 -11.536,92.944C-4.615,91.284 1.345,88.96 7.306,84.977C12.882,81.326 18.456,76.181 19.803,69.874C21.533,57.094 9.614,46.306 0,38.339M45.182,-1.826C27.687,7.302 11.536,18.423 -3.269,30.705C15.573,45.144 35.954,64.563 16.534,82.488C6.345,91.782 -8.459,97.26 -23.071,98.089C-29.609,98.421 -36.146,98.089 -41.53,94.936C-46.72,91.782 -48.067,86.139 -47.106,80.994C-45.374,72.53 -39.8,64.231 -34.224,57.094C-27.687,48.297 -19.997,40.331 -11.536,33.194C-10.767,32.364 -10.191,32.032 -9.228,31.202C-19.034,24.066 -29.225,17.593 -38.453,10.124C-44.413,5.643 -49.989,0.497 -53.066,-5.81C-56.334,-12.614 -56.334,-20.249 -53.066,-27.054C-45.759,-41.328 -28.264,-51.286 -11.536,-56.431C-3.269,-58.921 5.382,-60.082 14.612,-59.584C19.226,-59.584 24.418,-58.921 29.031,-56.929C31.339,-56.099 32.685,-54.937 34.03,-52.946C34.991,-51.618 34.607,-50.456 32.685,-50.456C31.724,-50.124 30.378,-51.286 30.761,-51.618C27.878,-54.937 21.725,-55.767 16.534,-56.431C11.919,-56.929 7.306,-56.929 2.691,-56.099C-7.498,-54.937 -17.112,-51.286 -25.956,-46.971C-40.183,-39.336 -54.988,-25.726 -49.989,-10.29C-47.681,-3.486 -42.105,2.157 -36.531,6.804C-30.569,11.618 -24.61,16.099 -18.073,20.414C-14.804,22.738 -10.767,25.559 -6.537,28.713C8.267,16.099 24.418,4.812 42.297,-3.818C43.26,-4.647 44.221,-4.647 45.182,-3.818C46.143,-3.486 46.143,-2.324 45.182,-1.826" style="fill:white;fill-rule:nonzero;"/>
            </g>
            <g transform="matrix(0.753466,0.0518794,-0.0518794,0.753466,118.614,147.167)">
                <path d="M0,-16.914C-1.306,-14.658 -3.919,-8.796 -0.783,-6.089C0.523,-5.412 3.136,-5.412 4.964,-5.412L6.27,-5.412C7.315,-8.119 8.622,-11.501 8.098,-14.658C7.839,-16.688 7.315,-20.747 5.487,-20.747C3.136,-20.747 1.045,-18.493 0,-16.914M4.181,-1.804C4.702,-1.804 -0.783,-1.579 -2.872,-2.932C-4.179,-3.383 -5.223,-4.51 -5.747,-5.412C-5.747,-2.706 -5.747,0.902 -3.919,3.157C-0.783,6.314 3.658,0.451 4.181,-1.804M30.043,-12.629C25.079,-6.991 17.764,-3.383 10.449,-2.255C8.36,2.029 3.658,8.795 -3.134,7.442C-7.575,6.314 -9.404,3.157 -10.187,0C-10.711,-3.834 -10.711,-8.119 -9.404,-11.952C-8.881,-13.08 -7.575,-14.658 -5.747,-15.335C-4.44,-19.62 -1.306,-23.454 3.658,-23.905C14.368,-25.709 13.847,-11.952 11.756,-6.089C17.505,-7.217 22.466,-9.922 26.124,-14.208C27.43,-15.335 31.35,-14.208 30.043,-12.629" style="fill:white;fill-rule:nonzero;"/>
            </g>
            <g transform="matrix(0.753466,0.0518794,-0.0518794,0.753466,162.886,138.948)">
                <path d="M0,2.255C-3.919,7.216 -9.404,11.05 -15.675,14.208C-20.115,16.462 -27.692,19.62 -32.654,16.462C-43.367,9.246 -21.943,-17.365 -11.494,-9.021C-9.404,-7.442 -13.324,-5.863 -15.151,-6.766C-17.764,-8.57 -21.422,-4.737 -22.728,-3.158C-25.079,-0.902 -26.386,1.353 -27.692,4.059C-28.999,6.088 -29.52,8.795 -29.52,11.501C-29.52,12.178 -28.999,13.08 -28.999,13.08L-28.213,13.757C-24.556,13.757 -19.592,11.05 -16.458,9.472C-12.017,6.765 -8.36,4.059 -5.747,0.676C-3.919,-0.902 1.045,-0.451 0,2.255" style="fill:white;fill-rule:nonzero;"/>
            </g>
            <g transform="matrix(0.753466,0.0518794,-0.0518794,0.753466,159.626,157.576)">
                <path d="M0,-35.58C-0.785,-36.031 -1.83,-36.257 -1.83,-37.384C-1.83,-39.413 1.828,-41.218 3.134,-39.413C3.655,-38.962 4.44,-38.737 4.44,-37.835C4.44,-36.708 1.828,-34.678 0,-35.58M3.917,-23.459C3.917,-20.907 3.134,-18.525 2.611,-15.972C1.304,-9.506 -0.523,-3.04 -1.047,3.596C-1.047,5.638 -6.794,5.638 -6.794,3.596L-6.794,1.555C-6.27,-3.38 -4.964,-8.655 -3.658,-13.59C-3.136,-15.972 -3.136,-18.525 -2.351,-21.417C-2.351,-22.098 -1.83,-22.948 -1.83,-23.799L-1.83,-24.14L-1.83,-24.65L-1.83,-24.991C-0.523,-27.033 3.917,-25.501 3.917,-23.459" style="fill:white;fill-rule:nonzero;"/>
            </g>
            <g transform="matrix(0.753466,0.0518794,-0.0518794,0.753466,204.23,158.868)">
                <path d="M0,-20.748C-3.658,-15.336 -6.27,-8.795 -9.928,-3.383C-13.062,0.902 -16.981,7.441 -23.773,7.441C-26.909,7.892 -28.737,4.059 -30.043,2.029C-31.35,-1.354 -31.35,-4.511 -31.35,-8.344L-31.35,-14.885C-38.141,-3.383 -48.069,9.246 -55.384,1.578C-57.735,-0.677 -56.952,-3.383 -55.646,-6.09C-53.816,-9.923 -51.988,-13.757 -49.376,-16.915C-47.024,-20.297 -44.412,-23.905 -40.754,-25.71C-38.926,-26.612 -35.007,-27.289 -33.701,-25.033C-32.656,-23.004 -35.79,-22.327 -36.835,-23.454L-37.62,-23.454C-41.278,-20.297 -44.15,-16.689 -47.024,-12.179C-48.852,-9.472 -50.682,-6.09 -51.465,-2.933C-51.988,-1.805 -51.988,0.451 -50.682,0.451C-48.852,0.451 -46.242,-2.256 -45.195,-3.383C-38.665,-10.149 -34.745,-19.395 -29.522,-28.415C-28.216,-29.994 -23.773,-29.994 -24.296,-27.74C-25.079,-22.327 -26.386,-16.915 -26.386,-11.502C-26.386,-6.766 -26.386,-0.226 -23.252,3.608C-18.549,2.705 -15.675,-3.383 -13.062,-7.218C-10.711,-12.179 -8.1,-17.591 -4.964,-21.876C-3.658,-23.905 1.306,-23.004 0,-20.748" style="fill:white;fill-rule:nonzero;"/>
            </g>
            <g transform="matrix(0.753466,0.0518794,-0.0518794,0.753466,237.272,147.142)">
                <path d="M0,-1.803C-10.711,12.404 -19.332,27.514 -27.43,42.624C-30.043,46.908 -31.873,51.419 -35.007,55.703C-36.835,57.733 -39.971,61.567 -43.89,61.116C-48.852,61.116 -51.988,56.154 -52.51,52.998C-56.167,35.858 -49.114,7.217 -45.195,-11.5C-42.061,-28.189 -39.448,-44.425 -36.835,-60.663C-36.835,-63.37 -31.873,-62.919 -31.873,-60.663C-33.177,-44.425 -36.314,-28.189 -39.448,-12.628C-41.539,-0.45 -51.203,39.692 -47.024,52.321C-46.242,54.351 -44.673,57.959 -42.061,55.703C-35.79,48.713 -32.656,39.918 -28.216,32.475C-21.162,19.847 -13.847,7.443 -4.443,-3.833C-2.351,-6.088 1.828,-4.509 0,-1.803" style="fill:white;fill-rule:nonzero;"/>
            </g>
        </g>
    </g>
</svg>
