<?xml version="1.0" encoding="UTF-8" standalone="no"?>
<!DOCTYPE svg PUBLIC "-//W3C//DTD SVG 1.1//EN" "http://www.w3.org/Graphics/SVG/1.1/DTD/svg11.dtd">
<svg width="100%" height="100%" viewBox="0 0 262 236" version="1.1" xmlns="http://www.w3.org/2000/svg" xmlns:xlink="http://www.w3.org/1999/xlink" xml:space="preserve" xmlns:serif="http://www.serif.com/" style="fill-rule:evenodd;clip-rule:evenodd;stroke-miterlimit:10;">
    <g transform="matrix(1,0,0,1,-9,-22)">
        <g>
            <g transform="matrix(-0.988939,-0.14832,-0.14832,0.988939,61.8741,9.9087)">
                <rect x="-209.413" y="15.616" width="225.709" height="202.896" style="fill:rgb(187,202,223);"/>
            </g>
            <g transform="matrix(1,0,0,1,127.985,90.8007)">
                <path d="M0,-26.149L0,-22.364C0,-18.993 1.308,-16.722 4.404,-16.722C7.295,-16.722 8.808,-18.442 8.808,-22.433L8.808,-26.218C8.808,-29.452 7.983,-32.136 4.404,-32.136C1.101,-32.136 0,-29.659 0,-26.149M9.29,-0.688L9.29,-6.468C9.29,-10.941 7.708,-12.868 4.335,-12.868C0.964,-12.868 -0.619,-10.941 -0.619,-6.262L-0.619,-0.826C-0.619,3.097 0.757,5.987 4.335,5.987C8.189,5.987 9.29,3.234 9.29,-0.688M-4.954,-0.826L-4.954,-6.055C-4.954,-11.905 -2.546,-13.693 -0.482,-14.864C-2.89,-16.309 -4.267,-18.649 -4.267,-23.121L-4.267,-26.011C-4.267,-32.136 -1.445,-35.99 4.61,-35.99C9.91,-35.99 13.075,-32.824 13.075,-26.011L13.075,-23.397C13.075,-17.754 11.217,-16.034 9.083,-14.932C11.767,-13.693 13.557,-11.423 13.557,-6.124L13.557,-1.101C13.557,6.125 10.804,9.841 4.267,9.841C-1.652,9.841 -4.954,6.4 -4.954,-0.826" style="fill-rule:nonzero;"/>
            </g>
            <g transform="matrix(1,0,0,1,150.763,89.4938)">
                <path d="M0,-23.535L0,0.137C0,4.817 1.513,7.019 4.886,7.019C7.844,7.019 9.565,5.368 9.565,-0.069L9.565,-23.604C9.565,-28.765 7.637,-30.554 4.817,-30.554C1.995,-30.554 0,-29.04 0,-23.535M13.969,-23.466L13.969,-0.207C13.969,7.638 10.872,11.148 4.679,11.148C-1.033,11.148 -4.335,7.707 -4.335,-0.069L-4.335,-23.19C-4.335,-31.792 -0.277,-34.683 4.954,-34.683C10.046,-34.683 13.969,-31.861 13.969,-23.466" style="fill-rule:nonzero;"/>
            </g>
            <g transform="matrix(1,0,0,1,168.722,54.8109)">
                <path d="M0,45.28L0,44.661C0,37.917 3.166,32.48 8.671,24.36C12.318,18.993 13.281,16.86 13.281,11.836C13.281,6.262 12.318,3.785 9.015,3.785C5.781,3.785 4.61,6.331 4.61,10.322L4.61,12.318L0.482,12.318L0.482,10.116C0.482,5.299 1.928,0 9.221,0C16.103,0 17.685,5.093 17.685,11.63C17.685,18.58 15.897,21.264 12.387,26.287C7.983,32.687 5.23,37.504 4.886,41.426L18.717,41.426L18.098,45.28L0,45.28Z" style="fill-rule:nonzero;"/>
            </g>
            <g transform="matrix(1,0,0,1,53.3044,231.325)">
                <path d="M0,7.858L0,5.278L0.267,5.278C0.569,6.959 1.287,7.799 2.418,7.799C2.927,7.799 3.321,7.638 3.6,7.317C3.88,6.995 4.019,6.635 4.019,6.236C4.019,5.834 3.897,5.497 3.652,5.225C3.406,4.957 2.957,4.669 2.306,4.361C1.726,4.085 1.288,3.843 0.993,3.636C0.698,3.429 0.468,3.16 0.302,2.828C0.136,2.497 0.053,2.144 0.053,1.769C0.053,1.198 0.232,0.721 0.59,0.341C0.948,-0.04 1.4,-0.231 1.949,-0.231C2.255,-0.231 2.543,-0.175 2.813,-0.065C3.084,0.046 3.361,0.275 3.646,0.621C3.81,0.405 3.902,0.17 3.923,-0.083L4.158,-0.083L4.158,2.018L3.923,2.018C3.788,1.406 3.549,0.925 3.206,0.574C2.862,0.223 2.465,0.047 2.013,0.047C1.582,0.047 1.266,0.177 1.065,0.435C0.864,0.694 0.764,0.977 0.764,1.284C0.764,1.655 0.89,1.969 1.143,2.225C1.391,2.485 1.842,2.777 2.493,3.101C3.116,3.408 3.569,3.656 3.852,3.843C4.135,4.031 4.361,4.29 4.532,4.621C4.703,4.953 4.788,5.335 4.788,5.769C4.788,6.455 4.582,7.014 4.169,7.444C3.756,7.874 3.204,8.089 2.514,8.089C1.721,8.089 1.059,7.751 0.529,7.077C0.411,7.263 0.324,7.522 0.267,7.858L0,7.858Z" style="fill-rule:nonzero;"/>
            </g>
            <g transform="matrix(1,0,0,1,61.1973,235.266)">
                <path d="M0,-0.024C0,1.266 0.232,2.234 0.696,2.881C1.161,3.529 1.857,3.852 2.786,3.852C3.601,3.852 4.245,3.529 4.719,2.881C5.192,2.234 5.428,1.27 5.428,-0.012C5.428,-1.259 5.195,-2.214 4.729,-2.879C4.263,-3.544 3.587,-3.876 2.701,-3.876C1.829,-3.876 1.161,-3.551 0.696,-2.903C0.232,-2.253 0,-1.294 0,-0.024M-1.223,-0.065C-1.223,-1.304 -0.849,-2.298 -0.102,-3.047C0.646,-3.797 1.578,-4.172 2.696,-4.172C3.824,-4.172 4.766,-3.801 5.522,-3.059C6.278,-2.317 6.656,-1.306 6.656,-0.024C6.656,1.218 6.294,2.224 5.57,2.994C4.846,3.763 3.893,4.148 2.712,4.148C1.562,4.148 0.619,3.763 -0.117,2.994C-0.854,2.224 -1.223,1.205 -1.223,-0.065" style="fill-rule:nonzero;"/>
            </g>
            <g transform="matrix(1,0,0,1,76.1357,234.254)">
                <path d="M0,2L0.23,2L0.23,4.81L0,4.81C-0.064,4.491 -0.18,4.209 -0.347,3.964C-0.984,4.761 -1.797,5.16 -2.787,5.16C-3.833,5.16 -4.688,4.792 -5.351,4.059C-6.015,3.325 -6.347,2.354 -6.347,1.148C-6.347,0.355 -6.194,-0.392 -5.888,-1.092C-5.582,-1.792 -5.155,-2.311 -4.607,-2.651C-4.059,-2.99 -3.457,-3.16 -2.802,-3.16C-2.262,-3.16 -1.772,-3.037 -1.332,-2.79C-0.892,-2.544 -0.564,-2.27 -0.347,-1.97C-0.194,-2.306 -0.102,-2.653 -0.07,-3.012L0.166,-3.012L0.23,0.03L0,0.03C-0.16,-1.051 -0.486,-1.803 -0.98,-2.225C-1.473,-2.647 -2.029,-2.858 -2.648,-2.858C-3.406,-2.858 -4.008,-2.517 -4.455,-1.835C-4.901,-1.152 -5.124,-0.176 -5.124,1.094C-5.124,2.298 -4.881,3.219 -4.393,3.861C-3.906,4.502 -3.299,4.822 -2.573,4.822C-2.185,4.822 -1.789,4.717 -1.383,4.509C-0.977,4.3 -0.656,3.945 -0.419,3.446C-0.183,2.948 -0.043,2.465 0,2" style="fill-rule:nonzero;"/>
            </g>
            <g transform="matrix(1,0,0,1,78.1882,238.993)">
                <path d="M0,-7.479L0,-7.751L3.31,-7.751L3.31,-7.479L3.155,-7.479C2.799,-7.479 2.566,-7.447 2.455,-7.381C2.345,-7.316 2.272,-7.195 2.234,-7.018C2.196,-6.84 2.178,-6.418 2.178,-5.751L2.178,-1.817C2.178,-1.185 2.192,-0.772 2.218,-0.577C2.245,-0.381 2.316,-0.237 2.432,-0.142C2.547,-0.047 2.769,0 3.096,0L3.31,0L3.31,0.272L0,0.272L0,0L0.213,0C0.523,0 0.738,-0.044 0.857,-0.13C0.976,-0.217 1.052,-0.352 1.084,-0.536C1.115,-0.719 1.132,-1.146 1.132,-1.817L1.132,-5.751C1.132,-6.39 1.115,-6.802 1.084,-6.988C1.052,-7.174 0.981,-7.301 0.87,-7.373C0.76,-7.444 0.522,-7.479 0.155,-7.479L0,-7.479Z" style="fill-rule:nonzero;"/>
            </g>
            <g transform="matrix(1,0,0,1,87.2232,234.355)">
                <path d="M0,1.686L-1.281,-1.734L-2.557,1.686L0,1.686ZM0.091,1.952L-2.658,1.952L-2.845,2.461C-3.123,3.199 -3.261,3.68 -3.261,3.905C-3.261,4.146 -3.188,4.328 -3.04,4.452C-2.892,4.577 -2.703,4.638 -2.472,4.638L-2.472,4.911L-4.622,4.911L-4.622,4.638C-4.302,4.584 -4.064,4.458 -3.907,4.263C-3.751,4.068 -3.562,3.656 -3.341,3.03C-3.324,2.97 -3.238,2.741 -3.085,2.343L-0.982,-3.225L-0.774,-3.225L1.644,3.147L1.975,3.988C2.05,4.177 2.15,4.326 2.276,4.434C2.403,4.543 2.592,4.611 2.845,4.638L2.845,4.911L0,4.911L0,4.638C0.349,4.638 0.585,4.61 0.707,4.553C0.83,4.496 0.891,4.382 0.891,4.212C0.891,4.126 0.809,3.868 0.646,3.437L0.091,1.952Z" style="fill-rule:nonzero;"/>
            </g>
            <g transform="matrix(1,0,0,1,97.3307,233.603)">
                <path d="M0,3.302L-0.053,5.663L-6.203,5.663L-6.203,5.39L-5.989,5.39C-5.68,5.39 -5.465,5.347 -5.345,5.26C-5.227,5.173 -5.15,5.039 -5.116,4.855C-5.082,4.672 -5.065,4.245 -5.065,3.574L-5.065,-0.361C-5.065,-1 -5.082,-1.412 -5.116,-1.598C-5.15,-1.783 -5.221,-1.911 -5.33,-1.982C-5.438,-2.053 -5.676,-2.088 -6.042,-2.088L-6.203,-2.088L-6.203,-2.361L-2.728,-2.361L-2.728,-2.088L-3.048,-2.088C-3.404,-2.088 -3.637,-2.056 -3.747,-1.991C-3.857,-1.926 -3.931,-1.805 -3.969,-1.627C-4.006,-1.45 -4.024,-1.028 -4.024,-0.361L-4.024,3.84C-4.024,4.42 -4.01,4.783 -3.982,4.929C-3.953,5.075 -3.876,5.188 -3.75,5.269C-3.624,5.35 -3.352,5.39 -2.936,5.39L-2.386,5.39C-1.941,5.39 -1.611,5.347 -1.396,5.26C-1.181,5.173 -0.976,4.985 -0.782,4.693C-0.588,4.401 -0.411,3.937 -0.251,3.302L0,3.302Z" style="fill-rule:nonzero;"/>
            </g>
            <g transform="matrix(1,0,0,1,106.865,232.626)">
                <path d="M0,5.255L2.637,-1.384L4.858,-1.384L4.858,-1.112L4.591,-1.112C4.235,-1.112 4.002,-1.08 3.891,-1.014C3.781,-0.949 3.707,-0.828 3.67,-0.651C3.633,-0.473 3.614,-0.051 3.614,0.616L3.614,4.55C3.614,5.182 3.628,5.595 3.657,5.79C3.685,5.986 3.757,6.13 3.873,6.225C3.989,6.32 4.21,6.367 4.537,6.367L4.858,6.367L4.858,6.639L1.398,6.639L1.398,6.367L1.655,6.367C1.961,6.367 2.173,6.323 2.293,6.237C2.412,6.15 2.488,6.015 2.522,5.831C2.556,5.648 2.573,5.221 2.573,4.55L2.573,-0.556L-0.293,6.639L-0.545,6.639L-3.433,-0.556L-3.433,4.142C-3.433,4.785 -3.414,5.223 -3.379,5.456C-3.343,5.689 -3.233,5.893 -3.048,6.069C-2.863,6.244 -2.603,6.344 -2.269,6.367L-2.269,6.639L-4.858,6.639L-4.858,6.367C-4.548,6.347 -4.296,6.254 -4.102,6.086C-3.909,5.918 -3.79,5.713 -3.747,5.468C-3.704,5.223 -3.683,4.769 -3.683,4.107L-3.683,0.616C-3.683,-0.023 -3.7,-0.435 -3.734,-0.621C-3.767,-0.806 -3.839,-0.934 -3.947,-1.006C-4.056,-1.077 -4.293,-1.112 -4.66,-1.112L-4.858,-1.112L-4.858,-1.384L-2.653,-1.384L0,5.255Z" style="fill-rule:nonzero;"/>
            </g>
            <g transform="matrix(1,0,0,1,118.99,233.738)">
                <path d="M0,3.03L0.256,3.03L0.102,5.527L-5.893,5.527L-5.893,5.255L-5.743,5.255C-5.384,5.255 -5.152,5.201 -5.046,5.095C-4.942,4.988 -4.875,4.854 -4.846,4.689C-4.818,4.526 -4.804,4.109 -4.804,3.438L-4.804,-0.497C-4.804,-1.108 -4.819,-1.51 -4.849,-1.703C-4.879,-1.897 -4.949,-2.032 -5.058,-2.109C-5.166,-2.186 -5.395,-2.224 -5.743,-2.224L-5.743,-2.497L-0.571,-2.497L-0.4,-0.497L-0.651,-0.497C-0.765,-1.057 -0.905,-1.454 -1.07,-1.689C-1.235,-1.924 -1.432,-2.071 -1.66,-2.133C-1.888,-2.194 -2.254,-2.224 -2.759,-2.224L-3.763,-2.224L-3.763,1.142L-2.995,1.142C-2.642,1.142 -2.396,1.109 -2.255,1.042C-2.114,0.975 -2.022,0.873 -1.977,0.737C-1.933,0.601 -1.911,0.336 -1.911,-0.059L-1.66,-0.059L-1.66,2.687L-1.911,2.687C-1.911,2.241 -1.944,1.942 -2.012,1.79C-2.08,1.639 -2.178,1.54 -2.308,1.495C-2.439,1.449 -2.658,1.427 -2.968,1.427L-3.763,1.427L-3.763,3.326C-3.763,4.277 -3.708,4.835 -3.598,5.003C-3.487,5.171 -3.19,5.255 -2.706,5.255L-2.167,5.255C-1.786,5.255 -1.473,5.2 -1.228,5.092C-0.982,4.984 -0.748,4.76 -0.526,4.423C-0.303,4.086 -0.128,3.622 0,3.03" style="fill-rule:nonzero;"/>
            </g>
            <g transform="matrix(1,0,0,1,122.89,238.951)">
                <path d="M0,-7.478L0,-2.117C0,-1.325 0.013,-0.814 0.04,-0.585C0.067,-0.356 0.147,-0.195 0.28,-0.102C0.413,-0.01 0.696,0.036 1.126,0.036C1.756,0.036 2.274,-0.059 2.679,-0.251C3.085,-0.442 3.424,-0.818 3.696,-1.381C3.968,-1.943 4.104,-2.66 4.104,-3.532C4.104,-4.21 4.025,-4.815 3.867,-5.348C3.708,-5.88 3.482,-6.313 3.186,-6.647C2.891,-6.98 2.564,-7.207 2.204,-7.327C1.845,-7.448 1.384,-7.507 0.822,-7.507C0.551,-7.507 0.277,-7.498 0,-7.478M-2.232,-7.644L-1.041,-7.709C-0.048,-7.764 0.621,-7.792 0.966,-7.792C2.041,-7.792 2.879,-7.61 3.48,-7.248C4.081,-6.884 4.529,-6.392 4.822,-5.771C5.116,-5.15 5.263,-4.433 5.263,-3.62C5.263,-3.032 5.183,-2.495 5.023,-2.008C4.862,-1.52 4.643,-1.116 4.363,-0.795C4.084,-0.473 3.76,-0.229 3.392,-0.061C3.023,0.107 2.674,0.211 2.343,0.252C2.012,0.293 1.546,0.314 0.945,0.314L-2.264,0.314L-2.264,0.042L-1.965,0.042C-1.655,0.042 -1.44,-0.001 -1.321,-0.088C-1.202,-0.175 -1.126,-0.31 -1.092,-0.493C-1.058,-0.677 -1.041,-1.103 -1.041,-1.775L-1.041,-5.644C-1.041,-6.283 -1.058,-6.696 -1.092,-6.883C-1.126,-7.071 -1.197,-7.199 -1.306,-7.268C-1.414,-7.337 -1.652,-7.372 -2.018,-7.372L-2.232,-7.372L-2.232,-7.644Z" style="fill-rule:nonzero;"/>
            </g>
            <g transform="matrix(1,0,0,1,129.816,238.993)">
                <path d="M0,-7.479L0,-7.751L3.31,-7.751L3.31,-7.479L3.155,-7.479C2.799,-7.479 2.566,-7.447 2.455,-7.381C2.345,-7.316 2.272,-7.195 2.234,-7.018C2.196,-6.84 2.178,-6.418 2.178,-5.751L2.178,-1.817C2.178,-1.185 2.192,-0.772 2.218,-0.577C2.245,-0.381 2.316,-0.237 2.432,-0.142C2.547,-0.047 2.769,0 3.096,0L3.31,0L3.31,0.272L0,0.272L0,0L0.213,0C0.523,0 0.738,-0.044 0.857,-0.13C0.976,-0.217 1.052,-0.352 1.084,-0.536C1.115,-0.719 1.132,-1.146 1.132,-1.817L1.132,-5.751C1.132,-6.39 1.115,-6.802 1.084,-6.988C1.052,-7.174 0.981,-7.301 0.87,-7.373C0.76,-7.444 0.522,-7.479 0.155,-7.479L0,-7.479Z" style="fill-rule:nonzero;"/>
            </g>
            <g transform="matrix(1,0,0,1,138.85,234.355)">
                <path d="M0,1.686L-1.28,-1.734L-2.556,1.686L0,1.686ZM0.093,1.952L-2.657,1.952L-2.844,2.461C-3.122,3.199 -3.26,3.68 -3.26,3.905C-3.26,4.146 -3.186,4.328 -3.039,4.452C-2.891,4.577 -2.701,4.638 -2.47,4.638L-2.47,4.911L-4.621,4.911L-4.621,4.638C-4.301,4.584 -4.063,4.458 -3.906,4.263C-3.749,4.068 -3.561,3.656 -3.34,3.03C-3.322,2.97 -3.237,2.741 -3.084,2.343L-0.981,-3.225L-0.773,-3.225L1.645,3.147L1.977,3.988C2.05,4.177 2.151,4.326 2.277,4.434C2.404,4.543 2.594,4.611 2.846,4.638L2.846,4.911L0,4.911L0,4.638C0.351,4.638 0.587,4.61 0.708,4.553C0.831,4.496 0.893,4.382 0.893,4.212C0.893,4.126 0.811,3.868 0.646,3.437L0.093,1.952Z" style="fill-rule:nonzero;"/>
            </g>
            <g transform="matrix(1,0,0,1,151.07,232.626)">
                <path d="M0,5.255L2.637,-1.384L4.858,-1.384L4.858,-1.112L4.591,-1.112C4.234,-1.112 4.001,-1.08 3.892,-1.014C3.781,-0.949 3.708,-0.828 3.67,-0.651C3.632,-0.473 3.614,-0.051 3.614,0.616L3.614,4.55C3.614,5.182 3.628,5.595 3.656,5.79C3.685,5.986 3.757,6.13 3.872,6.225C3.989,6.32 4.21,6.367 4.537,6.367L4.858,6.367L4.858,6.639L1.398,6.639L1.398,6.367L1.655,6.367C1.961,6.367 2.173,6.323 2.293,6.237C2.412,6.15 2.488,6.015 2.523,5.831C2.557,5.648 2.573,5.221 2.573,4.55L2.573,-0.556L-0.293,6.639L-0.545,6.639L-3.433,-0.556L-3.433,4.142C-3.433,4.785 -3.414,5.223 -3.379,5.456C-3.343,5.689 -3.233,5.893 -3.048,6.069C-2.863,6.244 -2.603,6.344 -2.269,6.367L-2.269,6.639L-4.858,6.639L-4.858,6.367C-4.547,6.347 -4.296,6.254 -4.102,6.086C-3.909,5.918 -3.789,5.713 -3.747,5.468C-3.705,5.223 -3.682,4.769 -3.682,4.107L-3.682,0.616C-3.682,-0.023 -3.701,-0.435 -3.734,-0.621C-3.768,-0.806 -3.838,-0.934 -3.948,-1.006C-4.056,-1.077 -4.293,-1.112 -4.66,-1.112L-4.858,-1.112L-4.858,-1.384L-2.653,-1.384L0,5.255Z" style="fill-rule:nonzero;"/>
            </g>
            <g transform="matrix(1,0,0,1,161.583,234.355)">
                <path d="M0,1.686L-1.28,-1.734L-2.557,1.686L0,1.686ZM0.091,1.952L-2.658,1.952L-2.844,2.461C-3.122,3.199 -3.261,3.68 -3.261,3.905C-3.261,4.146 -3.187,4.328 -3.039,4.452C-2.892,4.577 -2.703,4.638 -2.471,4.638L-2.471,4.911L-4.622,4.911L-4.622,4.638C-4.302,4.584 -4.063,4.458 -3.907,4.263C-3.75,4.068 -3.562,3.656 -3.341,3.03C-3.323,2.97 -3.237,2.741 -3.084,2.343L-0.981,-3.225L-0.774,-3.225L1.644,3.147L1.975,3.988C2.05,4.177 2.151,4.326 2.277,4.434C2.404,4.543 2.593,4.611 2.846,4.638L2.846,4.911L0,4.911L0,4.638C0.35,4.638 0.585,4.61 0.708,4.553C0.831,4.496 0.891,4.382 0.891,4.212C0.891,4.126 0.81,3.868 0.646,3.437L0.091,1.952Z" style="fill-rule:nonzero;"/>
            </g>
            <g transform="matrix(1,0,0,1,171.91,231.242)">
                <path d="M0,8.207L-5.119,0.687L-5.119,6.255C-5.119,6.716 -5.098,7.02 -5.057,7.166C-5.016,7.312 -4.9,7.446 -4.707,7.568C-4.515,7.69 -4.227,7.751 -3.843,7.751L-3.843,8.024L-6.544,8.024L-6.544,7.751C-6.198,7.724 -5.934,7.654 -5.753,7.542C-5.572,7.429 -5.464,7.308 -5.43,7.178C-5.397,7.047 -5.38,6.74 -5.38,6.255L-5.38,2C-5.38,1.385 -5.405,0.973 -5.457,0.763C-5.509,0.555 -5.59,0.42 -5.703,0.361C-5.815,0.302 -6.065,0.273 -6.452,0.273L-6.452,0L-4.317,0L-0.031,6.278L-0.031,1.479C-0.031,1.125 -0.065,0.876 -0.131,0.734C-0.197,0.592 -0.33,0.48 -0.533,0.397C-0.736,0.314 -0.98,0.273 -1.265,0.273L-1.265,0L1.362,0L1.362,0.273C1.056,0.3 0.814,0.365 0.639,0.468C0.462,0.57 0.351,0.694 0.302,0.838C0.254,0.982 0.23,1.225 0.23,1.569L0.23,8.207L0,8.207Z" style="fill-rule:nonzero;"/>
            </g>
            <g transform="matrix(1,0,0,1,178.521,234.355)">
                <path d="M0,1.686L-1.28,-1.734L-2.557,1.686L0,1.686ZM0.091,1.952L-2.658,1.952L-2.844,2.461C-3.122,3.199 -3.261,3.68 -3.261,3.905C-3.261,4.146 -3.187,4.328 -3.039,4.452C-2.892,4.577 -2.703,4.638 -2.471,4.638L-2.471,4.911L-4.622,4.911L-4.622,4.638C-4.302,4.584 -4.063,4.458 -3.907,4.263C-3.75,4.068 -3.562,3.656 -3.341,3.03C-3.323,2.97 -3.237,2.741 -3.084,2.343L-0.981,-3.225L-0.774,-3.225L1.644,3.147L1.975,3.988C2.05,4.177 2.151,4.326 2.277,4.434C2.404,4.543 2.593,4.611 2.846,4.638L2.846,4.911L0,4.911L0,4.638C0.35,4.638 0.585,4.61 0.708,4.553C0.831,4.496 0.891,4.382 0.891,4.212C0.891,4.126 0.81,3.868 0.646,3.437L0.091,1.952Z" style="fill-rule:nonzero;"/>
            </g>
            <g transform="matrix(1,0,0,1,186.756,234.668)">
                <path d="M0,1.171L3.122,1.171L3.122,1.455C2.777,1.455 2.544,1.494 2.42,1.57C2.298,1.648 2.217,1.776 2.177,1.955C2.138,2.135 2.119,2.57 2.119,3.26L2.119,4.112C2.034,4.096 1.957,4.088 1.89,4.088C1.616,4.088 1.257,4.181 0.811,4.366C0.206,4.619 -0.354,4.745 -0.87,4.745C-1.905,4.745 -2.767,4.368 -3.454,3.612C-4.14,2.857 -4.484,1.899 -4.484,0.739C-4.484,-0.408 -4.157,-1.414 -3.501,-2.278C-2.847,-3.142 -1.957,-3.574 -0.833,-3.574C0.135,-3.574 0.936,-3.18 1.57,-2.391C1.686,-2.667 1.762,-2.965 1.794,-3.284L2.05,-3.284L2.05,-0.604L1.794,-0.604C1.69,-1.428 1.408,-2.081 0.948,-2.562C0.487,-3.044 -0.073,-3.284 -0.731,-3.284C-1.411,-3.284 -2.003,-3.004 -2.509,-2.444C-3.014,-1.884 -3.267,-0.89 -3.267,0.539C-3.267,1.962 -3.023,2.971 -2.535,3.565C-2.048,4.159 -1.443,4.455 -0.72,4.455C-0.351,4.455 -0.014,4.371 0.288,4.203C0.591,4.036 0.797,3.832 0.907,3.591C1.018,3.351 1.073,3.047 1.073,2.68C1.073,2.251 1.047,1.964 0.995,1.819C0.943,1.675 0.865,1.579 0.758,1.529C0.651,1.48 0.455,1.455 0.171,1.455L0,1.455L0,1.171Z" style="fill-rule:nonzero;"/>
            </g>
            <g transform="matrix(1,0,0,1,197.202,233.738)">
                <path d="M0,3.03L0.256,3.03L0.101,5.527L-5.894,5.527L-5.894,5.255L-5.743,5.255C-5.384,5.255 -5.152,5.201 -5.047,5.095C-4.942,4.988 -4.876,4.854 -4.848,4.689C-4.818,4.526 -4.804,4.109 -4.804,3.438L-4.804,-0.497C-4.804,-1.108 -4.82,-1.51 -4.851,-1.703C-4.88,-1.897 -4.95,-2.032 -5.058,-2.109C-5.166,-2.186 -5.395,-2.224 -5.743,-2.224L-5.743,-2.497L-0.571,-2.497L-0.4,-0.497L-0.651,-0.497C-0.765,-1.057 -0.906,-1.454 -1.071,-1.689C-1.237,-1.924 -1.433,-2.071 -1.661,-2.133C-1.888,-2.194 -2.255,-2.224 -2.76,-2.224L-3.764,-2.224L-3.764,1.142L-2.995,1.142C-2.642,1.142 -2.396,1.109 -2.256,1.042C-2.116,0.975 -2.023,0.873 -1.978,0.737C-1.933,0.601 -1.911,0.336 -1.911,-0.059L-1.661,-0.059L-1.661,2.687L-1.911,2.687C-1.911,2.241 -1.946,1.942 -2.013,1.79C-2.081,1.639 -2.179,1.54 -2.309,1.495C-2.439,1.449 -2.659,1.427 -2.968,1.427L-3.764,1.427L-3.764,3.326C-3.764,4.277 -3.709,4.835 -3.598,5.003C-3.487,5.171 -3.191,5.255 -2.707,5.255L-2.168,5.255C-1.787,5.255 -1.474,5.2 -1.228,5.092C-0.983,4.984 -0.748,4.76 -0.526,4.423C-0.303,4.086 -0.129,3.622 0,3.03" style="fill-rule:nonzero;"/>
            </g>
            <g transform="matrix(1,0,0,1,203.685,232.626)">
                <path d="M0,5.255L2.637,-1.384L4.858,-1.384L4.858,-1.112L4.591,-1.112C4.234,-1.112 4.001,-1.08 3.892,-1.014C3.781,-0.949 3.708,-0.828 3.67,-0.651C3.632,-0.473 3.614,-0.051 3.614,0.616L3.614,4.55C3.614,5.182 3.628,5.595 3.656,5.79C3.685,5.986 3.757,6.13 3.872,6.225C3.989,6.32 4.21,6.367 4.537,6.367L4.858,6.367L4.858,6.639L1.398,6.639L1.398,6.367L1.655,6.367C1.961,6.367 2.173,6.323 2.293,6.237C2.412,6.15 2.488,6.015 2.523,5.831C2.557,5.648 2.573,5.221 2.573,4.55L2.573,-0.556L-0.293,6.639L-0.545,6.639L-3.433,-0.556L-3.433,4.142C-3.433,4.785 -3.414,5.223 -3.379,5.456C-3.343,5.689 -3.233,5.893 -3.048,6.069C-2.863,6.244 -2.603,6.344 -2.269,6.367L-2.269,6.639L-4.858,6.639L-4.858,6.367C-4.547,6.347 -4.296,6.254 -4.102,6.086C-3.909,5.918 -3.789,5.713 -3.747,5.468C-3.705,5.223 -3.682,4.769 -3.682,4.107L-3.682,0.616C-3.682,-0.023 -3.701,-0.435 -3.734,-0.621C-3.768,-0.806 -3.838,-0.934 -3.948,-1.006C-4.056,-1.077 -4.293,-1.112 -4.66,-1.112L-4.858,-1.112L-4.858,-1.384L-2.653,-1.384L0,5.255Z" style="fill-rule:nonzero;"/>
            </g>
            <g transform="matrix(1,0,0,1,215.811,233.738)">
                <path d="M0,3.03L0.256,3.03L0.101,5.527L-5.894,5.527L-5.894,5.255L-5.743,5.255C-5.384,5.255 -5.152,5.201 -5.047,5.095C-4.942,4.988 -4.876,4.854 -4.848,4.689C-4.818,4.526 -4.804,4.109 -4.804,3.438L-4.804,-0.497C-4.804,-1.108 -4.82,-1.51 -4.851,-1.703C-4.88,-1.897 -4.95,-2.032 -5.058,-2.109C-5.166,-2.186 -5.395,-2.224 -5.743,-2.224L-5.743,-2.497L-0.571,-2.497L-0.4,-0.497L-0.651,-0.497C-0.765,-1.057 -0.906,-1.454 -1.071,-1.689C-1.237,-1.924 -1.433,-2.071 -1.661,-2.133C-1.888,-2.194 -2.255,-2.224 -2.76,-2.224L-3.764,-2.224L-3.764,1.142L-2.995,1.142C-2.642,1.142 -2.396,1.109 -2.256,1.042C-2.116,0.975 -2.023,0.873 -1.978,0.737C-1.933,0.601 -1.911,0.336 -1.911,-0.059L-1.661,-0.059L-1.661,2.687L-1.911,2.687C-1.911,2.241 -1.946,1.942 -2.013,1.79C-2.081,1.639 -2.179,1.54 -2.309,1.495C-2.439,1.449 -2.659,1.427 -2.968,1.427L-3.764,1.427L-3.764,3.326C-3.764,4.277 -3.709,4.835 -3.598,5.003C-3.487,5.171 -3.191,5.255 -2.707,5.255L-2.168,5.255C-1.787,5.255 -1.474,5.2 -1.228,5.092C-0.983,4.984 -0.748,4.76 -0.526,4.423C-0.303,4.086 -0.129,3.622 0,3.03" style="fill-rule:nonzero;"/>
            </g>
            <g transform="matrix(1,0,0,1,223.953,231.242)">
                <path d="M0,8.207L-5.119,0.687L-5.119,6.255C-5.119,6.716 -5.098,7.02 -5.057,7.166C-5.016,7.312 -4.9,7.446 -4.707,7.568C-4.515,7.69 -4.227,7.751 -3.843,7.751L-3.843,8.024L-6.544,8.024L-6.544,7.751C-6.198,7.724 -5.934,7.654 -5.753,7.542C-5.572,7.429 -5.464,7.308 -5.43,7.178C-5.397,7.047 -5.38,6.74 -5.38,6.255L-5.38,2C-5.38,1.385 -5.405,0.973 -5.457,0.763C-5.509,0.555 -5.59,0.42 -5.703,0.361C-5.815,0.302 -6.065,0.273 -6.452,0.273L-6.452,0L-4.317,0L-0.031,6.278L-0.031,1.479C-0.031,1.125 -0.065,0.876 -0.131,0.734C-0.197,0.592 -0.33,0.48 -0.533,0.397C-0.736,0.314 -0.98,0.273 -1.265,0.273L-1.265,0L1.362,0L1.362,0.273C1.056,0.3 0.814,0.365 0.639,0.468C0.462,0.57 0.351,0.694 0.302,0.838C0.254,0.982 0.23,1.225 0.23,1.569L0.23,8.207L0,8.207Z" style="fill-rule:nonzero;"/>
            </g>
            <g transform="matrix(1,0,0,1,226.765,237.336)">
                <path d="M0,-4.165L-0.246,-4.165L-0.209,-6.094L6.816,-6.094L6.854,-4.165L6.624,-4.165C6.542,-4.694 6.43,-5.075 6.287,-5.31C6.145,-5.544 5.992,-5.689 5.829,-5.742C5.665,-5.795 5.385,-5.822 4.991,-5.822L3.827,-5.822L3.827,-0.16C3.827,0.468 3.84,0.88 3.866,1.077C3.893,1.274 3.966,1.42 4.083,1.515C4.201,1.61 4.421,1.657 4.745,1.657L5.098,1.657L5.098,1.929L1.488,1.929L1.488,1.657L1.863,1.657C2.172,1.657 2.387,1.614 2.506,1.527C2.625,1.44 2.701,1.305 2.735,1.121C2.769,0.938 2.785,0.511 2.785,-0.16L2.785,-5.822L1.713,-5.822C1.247,-5.822 0.934,-5.797 0.774,-5.748C0.614,-5.699 0.463,-5.549 0.323,-5.301C0.181,-5.052 0.074,-4.674 0,-4.165" style="fill-rule:nonzero;"/>
            </g>
            <g transform="matrix(1,0,0,1,49.3268,44.1662)">
                <path d="M0,191.665L-19.131,191.665L-19.131,0L200.479,0L200.479,191.665L186.851,191.665" style="fill:none;stroke:rgb(33,146,165);stroke-width:1px;"/>
            </g>
            <g transform="matrix(1,0,0,1,65.4106,127.582)">
                <path d="M0,38.339C-1.922,36.679 -4.229,35.185 -6.153,33.526C-8.845,35.517 -11.152,38.007 -13.843,40.331C-21.727,47.965 -29.225,56.264 -34.607,65.061C-36.915,69.044 -39.8,73.027 -41.144,77.342C-42.491,80.164 -43.452,83.816 -42.491,86.968C-40.183,98.089 -20.764,95.268 -11.536,92.944C-4.615,91.284 1.345,88.96 7.306,84.977C12.882,81.326 18.456,76.181 19.803,69.874C21.533,57.094 9.614,46.306 0,38.339M45.182,-1.826C27.687,7.302 11.536,18.423 -3.269,30.705C15.573,45.144 35.954,64.563 16.534,82.488C6.345,91.782 -8.459,97.26 -23.071,98.089C-29.609,98.421 -36.146,98.089 -41.53,94.936C-46.72,91.782 -48.067,86.139 -47.106,80.994C-45.374,72.53 -39.8,64.231 -34.224,57.094C-27.687,48.297 -19.997,40.331 -11.536,33.194C-10.767,32.364 -10.191,32.032 -9.228,31.202C-19.034,24.066 -29.225,17.593 -38.453,10.124C-44.413,5.643 -49.989,0.497 -53.066,-5.81C-56.334,-12.614 -56.334,-20.249 -53.066,-27.054C-45.759,-41.328 -28.264,-51.286 -11.536,-56.431C-3.269,-58.921 5.382,-60.082 14.612,-59.584C19.226,-59.584 24.418,-58.921 29.031,-56.929C31.339,-56.099 32.685,-54.937 34.03,-52.946C34.991,-51.618 34.607,-50.456 32.685,-50.456C31.724,-50.124 30.378,-51.286 30.761,-51.618C27.878,-54.937 21.725,-55.767 16.534,-56.431C11.919,-56.929 7.306,-56.929 2.691,-56.099C-7.498,-54.937 -17.112,-51.286 -25.956,-46.971C-40.183,-39.336 -54.988,-25.726 -49.989,-10.29C-47.681,-3.486 -42.105,2.157 -36.531,6.804C-30.569,11.618 -24.61,16.099 -18.073,20.414C-14.804,22.738 -10.767,25.559 -6.537,28.713C8.267,16.099 24.418,4.812 42.297,-3.818C43.26,-4.647 44.221,-4.647 45.182,-3.818C46.143,-3.486 46.143,-2.324 45.182,-1.826" style="fill-rule:nonzero;"/>
            </g>
            <g transform="matrix(1,0,0,1,112.919,135.816)">
                <path d="M0,-16.914C-1.306,-14.658 -3.919,-8.796 -0.783,-6.089C0.523,-5.412 3.136,-5.412 4.964,-5.412L6.27,-5.412C7.315,-8.119 8.622,-11.501 8.098,-14.658C7.839,-16.688 7.315,-20.747 5.487,-20.747C3.136,-20.747 1.045,-18.493 0,-16.914M4.181,-1.804C4.702,-1.804 -0.783,-1.579 -2.872,-2.932C-4.179,-3.383 -5.223,-4.51 -5.747,-5.412C-5.747,-2.706 -5.747,0.902 -3.919,3.157C-0.783,6.314 3.658,0.451 4.181,-1.804M30.043,-12.629C25.079,-6.991 17.764,-3.383 10.449,-2.255C8.36,2.029 3.658,8.795 -3.134,7.442C-7.575,6.314 -9.404,3.157 -10.187,0C-10.711,-3.834 -10.711,-8.119 -9.404,-11.952C-8.881,-13.08 -7.575,-14.658 -5.747,-15.335C-4.44,-19.62 -1.306,-23.454 3.658,-23.905C14.368,-25.709 13.847,-11.952 11.756,-6.089C17.505,-7.217 22.466,-9.922 26.124,-14.208C27.43,-15.335 31.35,-14.208 30.043,-12.629" style="fill-rule:nonzero;"/>
            </g>
            <g transform="matrix(1,0,0,1,170.651,120.932)">
                <path d="M0,2.255C-3.919,7.216 -9.404,11.05 -15.675,14.208C-20.115,16.462 -27.692,19.62 -32.654,16.462C-43.367,9.246 -21.943,-17.365 -11.494,-9.021C-9.404,-7.442 -13.324,-5.863 -15.151,-6.766C-17.764,-8.57 -21.422,-4.737 -22.728,-3.158C-25.079,-0.902 -26.386,1.353 -27.692,4.059C-28.999,6.088 -29.52,8.795 -29.52,11.501C-29.52,12.178 -28.999,13.08 -28.999,13.08L-28.213,13.757C-24.556,13.757 -19.592,11.05 -16.458,9.472C-12.017,6.765 -8.36,4.059 -5.747,0.676C-3.919,-0.902 1.045,-0.451 0,2.255" style="fill-rule:nonzero;"/>
            </g>
            <g transform="matrix(1,0,0,1,168.039,145.834)">
                <path d="M0,-35.58C-0.785,-36.031 -1.83,-36.257 -1.83,-37.384C-1.83,-39.413 1.828,-41.218 3.134,-39.413C3.655,-38.962 4.44,-38.737 4.44,-37.835C4.44,-36.708 1.828,-34.678 0,-35.58M3.917,-23.459C3.917,-20.907 3.134,-18.525 2.611,-15.972C1.304,-9.506 -0.523,-3.04 -1.047,3.596C-1.047,5.638 -6.794,5.638 -6.794,3.596L-6.794,1.555C-6.27,-3.38 -4.964,-8.655 -3.658,-13.59C-3.136,-15.972 -3.136,-18.525 -2.351,-21.417C-2.351,-22.098 -1.83,-22.948 -1.83,-23.799L-1.83,-24.14L-1.83,-24.65L-1.83,-24.991C-0.523,-27.033 3.917,-25.501 3.917,-23.459" style="fill-rule:nonzero;"/>
            </g>
            <g transform="matrix(1,0,0,1,227.076,143.484)">
                <path d="M0,-20.748C-3.658,-15.336 -6.27,-8.795 -9.928,-3.383C-13.062,0.902 -16.981,7.441 -23.773,7.441C-26.909,7.892 -28.737,4.059 -30.043,2.029C-31.35,-1.354 -31.35,-4.511 -31.35,-8.344L-31.35,-14.885C-38.141,-3.383 -48.069,9.246 -55.384,1.578C-57.735,-0.677 -56.952,-3.383 -55.646,-6.09C-53.816,-9.923 -51.988,-13.757 -49.376,-16.915C-47.024,-20.297 -44.412,-23.905 -40.754,-25.71C-38.926,-26.612 -35.007,-27.289 -33.701,-25.033C-32.656,-23.004 -35.79,-22.327 -36.835,-23.454L-37.62,-23.454C-41.278,-20.297 -44.15,-16.689 -47.024,-12.179C-48.852,-9.472 -50.682,-6.09 -51.465,-2.933C-51.988,-1.805 -51.988,0.451 -50.682,0.451C-48.852,0.451 -46.242,-2.256 -45.195,-3.383C-38.665,-10.149 -34.745,-19.395 -29.522,-28.415C-28.216,-29.994 -23.773,-29.994 -24.296,-27.74C-25.079,-22.327 -26.386,-16.915 -26.386,-11.502C-26.386,-6.766 -26.386,-0.226 -23.252,3.608C-18.549,2.705 -15.675,-3.383 -13.062,-7.218C-10.711,-12.179 -8.1,-17.591 -4.964,-21.876C-3.658,-23.905 1.306,-23.004 0,-20.748" style="fill-rule:nonzero;"/>
            </g>
            <g transform="matrix(1,0,0,1,269.655,124.99)">
                <path d="M0,-1.803C-10.711,12.404 -19.332,27.514 -27.43,42.624C-30.043,46.908 -31.873,51.419 -35.007,55.703C-36.835,57.733 -39.971,61.567 -43.89,61.116C-48.852,61.116 -51.988,56.154 -52.51,52.998C-56.167,35.858 -49.114,7.217 -45.195,-11.5C-42.061,-28.189 -39.448,-44.425 -36.835,-60.663C-36.835,-63.37 -31.873,-62.919 -31.873,-60.663C-33.177,-44.425 -36.314,-28.189 -39.448,-12.628C-41.539,-0.45 -51.203,39.692 -47.024,52.321C-46.242,54.351 -44.673,57.959 -42.061,55.703C-35.79,48.713 -32.656,39.918 -28.216,32.475C-21.162,19.847 -13.847,7.443 -4.443,-3.833C-2.351,-6.088 1.828,-4.509 0,-1.803" style="fill-rule:nonzero;"/>
            </g>
        </g>
    </g>
</svg>
